<svg id="Layer_1" data-name="Layer 1" xmlns="http://www.w3.org/2000/svg" viewBox="0 0 116.86 111.13"><title>drip</title><path d="M-97.87,232.68a1.46,1.46,0,0,0-1.46,1.47v4a1.46,1.46,0,0,0,1.46,1.46,1.47,1.47,0,0,0,1.46-1.46v-4A1.47,1.47,0,0,0-97.87,232.68Zm23.37,11.68A1.46,1.46,0,0,0-76,245.82v2.76A1.46,1.46,0,0,0-74.5,250,1.46,1.46,0,0,0-73,248.58v-2.76A1.46,1.46,0,0,0-74.5,244.36Zm0-16.21A1.46,1.46,0,0,0-76,229.61v8.52a1.46,1.46,0,0,0,1.46,1.46A1.46,1.46,0,0,0-73,238.13v-8.52A1.46,1.46,0,0,0-74.5,228.15Zm5.84,4.28a1.47,1.47,0,0,0-1.46,1.46V237a1.46,1.46,0,0,0,1.46,1.46A1.46,1.46,0,0,0-67.2,237v-3.12A1.46,1.46,0,0,0-68.66,232.43Zm0,24.26a1.47,1.47,0,0,0-1.46,1.46v1.93a1.46,1.46,0,0,0,1.46,1.46,1.46,1.46,0,0,0,1.46-1.46v-1.93A1.46,1.46,0,0,0-68.66,256.69Zm-5.84-.79A1.46,1.46,0,0,0-76,257.36h0a1.46,1.46,0,0,0,1.46,1.46A1.46,1.46,0,0,0-73,257.36h0A1.46,1.46,0,0,0-74.5,255.9Zm-5.84,4a1.46,1.46,0,0,0-1.46,1.46v2.21a1.46,1.46,0,0,0,1.46,1.46,1.46,1.46,0,0,0,1.46-1.46v-2.21A1.47,1.47,0,0,0-80.34,260ZM-92,249.42a1.46,1.46,0,0,0-1.46,1.46v1.93A1.46,1.46,0,0,0-92,254.27a1.46,1.46,0,0,0,1.46-1.46v-1.93A1.46,1.46,0,0,0-92,249.42Zm0-21a1.46,1.46,0,0,0-1.46,1.46v10.9A1.46,1.46,0,0,0-92,242.24a1.46,1.46,0,0,0,1.46-1.46v-10.9A1.46,1.46,0,0,0-92,228.42Zm5.84-5.15a1.46,1.46,0,0,0-1.46,1.46v21.2a1.46,1.46,0,0,0,1.46,1.46,1.46,1.46,0,0,0,1.46-1.46v-21.2A1.46,1.46,0,0,0-86.19,223.27Zm0,28.82a1.46,1.46,0,0,0-1.46,1.46v4.69a1.46,1.46,0,0,0,1.46,1.46,1.46,1.46,0,0,0,1.46-1.46v-4.69A1.46,1.46,0,0,0-86.19,252.09Zm5.85-16.27a1.46,1.46,0,0,0-1.46,1.46v15.05a1.46,1.46,0,0,0,1.46,1.46,1.47,1.47,0,0,0,1.46-1.46V237.28A1.46,1.46,0,0,0-80.34,235.82Zm11.68,6.78a1.46,1.46,0,0,0-1.46,1.46v6.28a1.47,1.47,0,0,0,1.46,1.46,1.46,1.46,0,0,0,1.46-1.46v-6.28A1.46,1.46,0,0,0-68.66,242.6Zm23.37,20.23a1.46,1.46,0,0,0-1.46,1.46,1.47,1.47,0,0,0,1.46,1.46,1.46,1.46,0,0,0,1.46-1.46A1.46,1.46,0,0,0-45.29,262.83Zm5.85-9.77a1.46,1.46,0,0,0-1.46,1.46v3.9a1.46,1.46,0,0,0,1.46,1.46A1.46,1.46,0,0,0-38,258.42v-3.9A1.47,1.47,0,0,0-39.44,253.06Zm-11.69-1.21a1.46,1.46,0,0,0-1.46,1.46v1.93a1.46,1.46,0,0,0,1.46,1.46,1.46,1.46,0,0,0,1.46-1.46v-1.93A1.46,1.46,0,0,0-51.13,251.85Zm5.84-11.91a1.46,1.46,0,0,0-1.46,1.46v8.32a1.46,1.46,0,0,0,1.46,1.46,1.46,1.46,0,0,0,1.46-1.46V241.4A1.46,1.46,0,0,0-45.29,239.94Zm-5.84-5.51a1.46,1.46,0,0,0-1.46,1.46v8a1.46,1.46,0,0,0,1.46,1.46,1.46,1.46,0,0,0,1.46-1.46v-8A1.46,1.46,0,0,0-51.13,234.43Zm-11.69,27a1.46,1.46,0,0,0-1.46,1.46v4a1.47,1.47,0,0,0,1.46,1.47,1.47,1.47,0,0,0,1.47-1.47v-4A1.46,1.46,0,0,0-62.82,261.42Zm0-24.23a1.46,1.46,0,0,0-1.46,1.46v13.82a1.46,1.46,0,0,0,1.46,1.46,1.46,1.46,0,0,0,1.47-1.46V238.65A1.46,1.46,0,0,0-62.82,237.19ZM-57,262.83a1.46,1.46,0,0,0-1.46,1.46A1.46,1.46,0,0,0-57,265.75a1.47,1.47,0,0,0,1.46-1.46A1.46,1.46,0,0,0-57,262.83Zm0-32.58a1.46,1.46,0,0,0-1.46,1.46v5.52A1.46,1.46,0,0,0-57,238.69a1.46,1.46,0,0,0,1.46-1.46v-5.52A1.47,1.47,0,0,0-57,230.25Zm0,16.32A1.46,1.46,0,0,0-58.43,248v8.86A1.46,1.46,0,0,0-57,258.35a1.47,1.47,0,0,0,1.46-1.46V248A1.46,1.46,0,0,0-57,246.57Zm-70.12,1.32a1.46,1.46,0,0,0-1.46,1.46v6.21a1.46,1.46,0,0,0,1.46,1.46,1.46,1.46,0,0,0,1.46-1.46v-6.21A1.46,1.46,0,0,0-127.09,247.89Zm-17.53-10.64a1.46,1.46,0,0,0-1.46,1.46v9.87a1.47,1.47,0,0,0,1.46,1.46,1.47,1.47,0,0,0,1.47-1.46v-9.87A1.46,1.46,0,0,0-144.62,237.25Zm5.85,9.11a1.46,1.46,0,0,0-1.46,1.46v2.28a1.46,1.46,0,0,0,1.46,1.46,1.47,1.47,0,0,0,1.46-1.46v-2.28A1.46,1.46,0,0,0-138.77,246.36Zm5.84,17.26a1.46,1.46,0,0,0-1.46,1.46,1.46,1.46,0,0,0,1.46,1.47,1.46,1.46,0,0,0,1.46-1.47A1.46,1.46,0,0,0-132.93,263.62Zm-5.84-37.43a1.46,1.46,0,0,0-1.46,1.46V237a1.46,1.46,0,0,0,1.46,1.46,1.46,1.46,0,0,0,1.46-1.46v-9.36A1.47,1.47,0,0,0-138.77,226.19Zm99.33,5.65a1.46,1.46,0,0,0-1.46,1.46v12.27A1.46,1.46,0,0,0-39.44,247,1.46,1.46,0,0,0-38,245.57V233.3A1.47,1.47,0,0,0-39.44,231.84Zm-93.49,14.64a1.46,1.46,0,0,0-1.46,1.46v11.7a1.46,1.46,0,0,0,1.46,1.46,1.46,1.46,0,0,0,1.46-1.46v-11.7A1.46,1.46,0,0,0-132.93,246.48Zm0-14.24a1.46,1.46,0,0,0-1.46,1.46v4.88a1.46,1.46,0,0,0,1.46,1.46,1.46,1.46,0,0,0,1.46-1.46V233.7A1.46,1.46,0,0,0-132.93,232.24ZM-150.46,258a1.46,1.46,0,0,0,1.46-1.46v-10.3a1.46,1.46,0,0,0-1.46-1.47,1.46,1.46,0,0,0-1.46,1.47v10.3A1.46,1.46,0,0,0-150.46,258Zm5.84-.91a1.46,1.46,0,0,0-1.46,1.46v2.6a1.47,1.47,0,0,0,1.46,1.47,1.47,1.47,0,0,0,1.47-1.47v-2.6A1.46,1.46,0,0,0-144.62,257.12Zm-5.84-16.65A1.46,1.46,0,0,0-149,239V224.77a1.46,1.46,0,0,0-1.46-1.46,1.46,1.46,0,0,0-1.46,1.46V239A1.46,1.46,0,0,0-150.46,240.47Zm0,24.41a1.46,1.46,0,0,0-1.46,1.46,1.46,1.46,0,0,0,1.46,1.46,1.46,1.46,0,0,0,1.46-1.46A1.46,1.46,0,0,0-150.46,264.88Zm0-46.3a1.46,1.46,0,0,0,1.46-1.46v-4.64a1.46,1.46,0,0,1,1.46-1.46,1.46,1.46,0,0,1,1.46,1.46V230a1.46,1.46,0,0,0,1.46,1.46,1.46,1.46,0,0,0,1.47-1.46V211.13a1.46,1.46,0,0,1,1.46-1.46,1.46,1.46,0,0,1,1.46,1.46v10.75a1.46,1.46,0,0,0,1.46,1.47,1.47,1.47,0,0,0,1.46-1.47V204.27a1.46,1.46,0,0,1,1.46-1.46,1.46,1.46,0,0,1,1.46,1.46V226.9a1.46,1.46,0,0,0,1.46,1.46,1.46,1.46,0,0,0,1.46-1.46V197.26A1.46,1.46,0,0,1-130,195.8a1.46,1.46,0,0,1,1.46,1.46v22.33a1.46,1.46,0,0,0,1.46,1.46,1.46,1.46,0,0,0,1.46-1.46v-18a1.47,1.47,0,0,1,1.46-1.46,1.47,1.47,0,0,1,1.47,1.46v29.74a1.46,1.46,0,0,0,1.46,1.46,1.46,1.46,0,0,0,1.46-1.46V209a1.46,1.46,0,0,1,1.46-1.46,1.47,1.47,0,0,1,1.46,1.46v7.23a1.46,1.46,0,0,0,1.46,1.46,1.46,1.46,0,0,0,1.46-1.46v-1.29a1.46,1.46,0,0,1,1.46-1.46,1.46,1.46,0,0,1,1.46,1.46v14.45a1.46,1.46,0,0,0,1.46,1.46,1.46,1.46,0,0,0,1.46-1.46V209.62a1.46,1.46,0,0,1,1.46-1.46,1.46,1.46,0,0,1,1.46,1.46v16.73a1.46,1.46,0,0,0,1.46,1.46,1.46,1.46,0,0,0,1.47-1.46V212.77a1.46,1.46,0,0,1,1.46-1.46,1.46,1.46,0,0,1,1.46,1.46v13.95a1.46,1.46,0,0,0,1.46,1.46,1.46,1.46,0,0,0,1.46-1.46V201.06a1.46,1.46,0,0,1,1.46-1.47,1.46,1.46,0,0,1,1.46,1.47v20.79A1.46,1.46,0,0,0-92,223.31a1.46,1.46,0,0,0,1.46-1.46V215a1.46,1.46,0,0,1,1.46-1.46A1.46,1.46,0,0,1-87.65,215v3.1a1.46,1.46,0,0,0,1.46,1.46,1.46,1.46,0,0,0,1.46-1.46v-6.65A1.47,1.47,0,0,1-83.27,210a1.47,1.47,0,0,1,1.47,1.46v19.77a1.46,1.46,0,0,0,1.46,1.46,1.46,1.46,0,0,0,1.46-1.46V214a1.46,1.46,0,0,1,1.46-1.46A1.47,1.47,0,0,1-76,214v9.14a1.46,1.46,0,0,0,1.46,1.46A1.46,1.46,0,0,0-73,223.16V204.87a1.46,1.46,0,0,1,1.46-1.46,1.46,1.46,0,0,1,1.46,1.46v22.81a1.46,1.46,0,0,0,1.46,1.46,1.46,1.46,0,0,0,1.46-1.46V215a1.46,1.46,0,0,1,1.46-1.46A1.46,1.46,0,0,1-64.28,215v16.92a1.46,1.46,0,0,0,1.46,1.46,1.46,1.46,0,0,0,1.47-1.46V201.72a1.46,1.46,0,0,1,1.46-1.46,1.46,1.46,0,0,1,1.46,1.46v22.71A1.46,1.46,0,0,0-57,225.89a1.46,1.46,0,0,0,1.46-1.46V193.19A1.46,1.46,0,0,1-54,191.73a1.46,1.46,0,0,1,1.46,1.46v33.16a1.46,1.46,0,0,0,1.46,1.47,1.46,1.46,0,0,0,1.46-1.47V211.87a1.46,1.46,0,0,1,1.46-1.46,1.46,1.46,0,0,1,1.46,1.46v22.81a1.46,1.46,0,0,0,1.46,1.46,1.46,1.46,0,0,0,1.46-1.46V202.91a1.47,1.47,0,0,1,1.46-1.46,1.47,1.47,0,0,1,1.47,1.46v23.91a1.46,1.46,0,0,0,1.46,1.46A1.46,1.46,0,0,0-38,226.82V214.49A1.46,1.46,0,0,1-36.52,213a1.47,1.47,0,0,1,1.46,1.46v-7.56a1.46,1.46,0,0,1-1.46,1.46A1.46,1.46,0,0,1-38,206.93V194.82a1.46,1.46,0,0,1,1.46-1.47,1.47,1.47,0,0,1,1.46,1.47V184.2a1.46,1.46,0,0,1-1.46,1.46A1.46,1.46,0,0,1-38,184.2v-6.94a1.46,1.46,0,0,1,1.46-1.46,1.46,1.46,0,0,1,1.46,1.46v-12a1.46,1.46,0,0,1-1.46,1.46A1.46,1.46,0,0,1-38,165.3h0a1.46,1.46,0,0,1,1.46-1.46,1.46,1.46,0,0,1,1.46,1.46v-8.08H-151.92v59.9A1.46,1.46,0,0,0-150.46,218.58Zm106.63-55.52a1.46,1.46,0,0,1,1.46-1.46,1.46,1.46,0,0,1,1.47,1.46v5.64a1.46,1.46,0,0,1-1.47,1.46,1.46,1.46,0,0,1-1.46-1.46Zm0,13.6a1.46,1.46,0,0,1,1.46-1.46,1.46,1.46,0,0,1,1.47,1.46V196.2a1.46,1.46,0,0,1-1.47,1.46,1.46,1.46,0,0,1-1.46-1.46Zm-4.38-5.42a1.46,1.46,0,0,1,1.46,1.46,1.46,1.46,0,0,1-1.46,1.46,1.47,1.47,0,0,1-1.46-1.46A1.46,1.46,0,0,1-48.21,171.24Zm-1.46,13.25A1.46,1.46,0,0,1-48.21,183a1.46,1.46,0,0,1,1.46,1.46v9.89a1.46,1.46,0,0,1-1.46,1.46,1.46,1.46,0,0,1-1.46-1.46Zm0,15.52a1.47,1.47,0,0,1,1.46-1.46A1.46,1.46,0,0,1-46.75,200v5.17a1.46,1.46,0,0,1-1.46,1.46,1.46,1.46,0,0,1-1.46-1.46Zm-5.84-29.6A1.46,1.46,0,0,1-54,169a1.46,1.46,0,0,1,1.46,1.46v1.53A1.46,1.46,0,0,1-54,173.4a1.46,1.46,0,0,1-1.46-1.46Zm0,8.47A1.46,1.46,0,0,1-54,177.42a1.46,1.46,0,0,1,1.46,1.46v7.88A1.46,1.46,0,0,1-54,188.22a1.46,1.46,0,0,1-1.46-1.46Zm-5.84-14.35a1.46,1.46,0,0,1,1.46-1.46,1.47,1.47,0,0,1,1.46,1.46v1.53a1.46,1.46,0,0,1-1.46,1.46,1.46,1.46,0,0,1-1.46-1.46Zm0,18.54a1.46,1.46,0,0,1,1.46-1.46,1.46,1.46,0,0,1,1.46,1.46v9.39a1.46,1.46,0,0,1-1.46,1.46,1.46,1.46,0,0,1-1.46-1.46Zm-5.85-12a1.47,1.47,0,0,1,1.46-1.46A1.46,1.46,0,0,1-64.28,171v5.17a1.46,1.46,0,0,1-1.46,1.46,1.46,1.46,0,0,1-1.46-1.46Zm0,16.69a1.46,1.46,0,0,1,1.46-1.46,1.46,1.46,0,0,1,1.46,1.46V189a1.46,1.46,0,0,1-1.46,1.46A1.46,1.46,0,0,1-67.2,189Zm0,8.82a1.46,1.46,0,0,1,1.46-1.46,1.46,1.46,0,0,1,1.46,1.46v12.12a1.46,1.46,0,0,1-1.46,1.46,1.47,1.47,0,0,1-1.46-1.46ZM-73,181.12a1.46,1.46,0,0,1,1.46-1.46,1.46,1.46,0,0,1,1.46,1.46v16.26a1.46,1.46,0,0,1-1.46,1.46A1.46,1.46,0,0,1-73,197.38Zm-5.84-14.8a1.46,1.46,0,0,1,1.46-1.46A1.46,1.46,0,0,1-76,166.32v2.26A1.46,1.46,0,0,1-77.42,170a1.46,1.46,0,0,1-1.46-1.46Zm0,11.6a1.46,1.46,0,0,1,1.46-1.46A1.47,1.47,0,0,1-76,177.92v13.15a1.46,1.46,0,0,1-1.46,1.46,1.46,1.46,0,0,1-1.46-1.46Zm0,21.31a1.46,1.46,0,0,1,1.46-1.46A1.46,1.46,0,0,1-76,199.23v8.37a1.47,1.47,0,0,1-1.46,1.46,1.46,1.46,0,0,1-1.46-1.46Zm-2.92,4a1.46,1.46,0,0,1-1.47,1.46,1.46,1.46,0,0,1-1.46-1.46V187.93a1.46,1.46,0,0,1,1.46-1.46,1.46,1.46,0,0,1,1.47,1.46Zm0-26.94V179a1.47,1.47,0,0,1-1.47,1.46A1.47,1.47,0,0,1-84.73,179v-2.71a1.46,1.46,0,0,1,1.46-1.46A1.46,1.46,0,0,1-81.8,176.32Zm-3.45-14.89A1.47,1.47,0,0,1-83.78,160a1.47,1.47,0,0,1,1.46,1.46h0a1.46,1.46,0,0,1-1.46,1.46,1.46,1.46,0,0,1-1.47-1.46Zm-5.32,17a1.46,1.46,0,0,1,1.46-1.46,1.46,1.46,0,0,1,1.46,1.46v7.53a1.46,1.46,0,0,1-1.46,1.46,1.46,1.46,0,0,1-1.46-1.46Zm0,16.37a1.46,1.46,0,0,1,1.46-1.46,1.46,1.46,0,0,1,1.46,1.46v13.36a1.46,1.46,0,0,1-1.46,1.46,1.46,1.46,0,0,1-1.46-1.46ZM-96.41,172a1.46,1.46,0,0,1,1.46-1.46A1.46,1.46,0,0,1-93.49,172v1.31a1.46,1.46,0,0,1-1.46,1.46,1.46,1.46,0,0,1-1.46-1.46Zm0,7.3a1.46,1.46,0,0,1,1.46-1.46,1.46,1.46,0,0,1,1.46,1.46v11.13a1.46,1.46,0,0,1-1.46,1.47,1.46,1.46,0,0,1-1.46-1.47Zm-5.84-15.17a1.46,1.46,0,0,1,1.46-1.46,1.46,1.46,0,0,1,1.46,1.46v2.26a1.46,1.46,0,0,1-1.46,1.46,1.46,1.46,0,0,1-1.46-1.46Zm0,11.68a1.46,1.46,0,0,1,1.46-1.46,1.46,1.46,0,0,1,1.46,1.46v12.63a1.46,1.46,0,0,1-1.46,1.46,1.46,1.46,0,0,1-1.46-1.46Zm0,21.38a1.46,1.46,0,0,1,1.46-1.46,1.46,1.46,0,0,1,1.46,1.46v8.44a1.47,1.47,0,0,1-1.46,1.47,1.46,1.46,0,0,1-1.46-1.47Zm-5.85-15.76a1.46,1.46,0,0,1,1.46-1.46,1.46,1.46,0,0,1,1.46,1.46v2.71a1.46,1.46,0,0,1-1.46,1.46,1.47,1.47,0,0,1-1.46-1.46Zm0,12.05a1.47,1.47,0,0,1,1.46-1.46,1.46,1.46,0,0,1,1.46,1.46v10.06a1.46,1.46,0,0,1-1.46,1.46,1.46,1.46,0,0,1-1.46-1.46Zm-4.38-23.3a1.46,1.46,0,0,1,1.46,1.46,1.46,1.46,0,0,1-1.46,1.46,1.46,1.46,0,0,1-1.46-1.46A1.46,1.46,0,0,1-112.48,170.22Zm-1.46,16.37a1.46,1.46,0,0,1,1.46-1.46,1.46,1.46,0,0,1,1.46,1.46v7.78a1.46,1.46,0,0,1-1.46,1.47,1.46,1.46,0,0,1-1.46-1.47Zm0,16.57a1.46,1.46,0,0,1,1.46-1.46,1.46,1.46,0,0,1,1.46,1.46v3.13a1.46,1.46,0,0,1-1.46,1.46,1.46,1.46,0,0,1-1.46-1.46Zm-4.38-41.47a1.46,1.46,0,0,1,1.46,1.46,1.46,1.46,0,0,1-1.46,1.46,1.46,1.46,0,0,1-1.46-1.46A1.46,1.46,0,0,1-118.32,161.69Zm-1.46,11.45a1.46,1.46,0,0,1,1.46-1.46,1.47,1.47,0,0,1,1.46,1.46v12.11a1.46,1.46,0,0,1-1.46,1.46,1.46,1.46,0,0,1-1.46-1.46Zm0,20.94a1.46,1.46,0,0,1,1.46-1.46,1.46,1.46,0,0,1,1.46,1.46v6.43a1.46,1.46,0,0,1-1.46,1.46,1.46,1.46,0,0,1-1.46-1.46Zm-5.85-27.23a1.46,1.46,0,0,1,1.46-1.46,1.46,1.46,0,0,1,1.47,1.46v2.51a1.46,1.46,0,0,1-1.47,1.46,1.46,1.46,0,0,1-1.46-1.46Zm0,19.3a1.46,1.46,0,0,1,1.46-1.46,1.46,1.46,0,0,1,1.47,1.46v8.67a1.47,1.47,0,0,1-1.47,1.46,1.47,1.47,0,0,1-1.46-1.46Zm-5.84-15a1.46,1.46,0,0,1,1.46-1.46,1.46,1.46,0,0,1,1.46,1.46v3.15a1.46,1.46,0,0,1-1.46,1.46,1.46,1.46,0,0,1-1.46-1.46Zm0,11.72a1.46,1.46,0,0,1,1.46-1.46,1.46,1.46,0,0,1,1.46,1.46v5.64a1.46,1.46,0,0,1-1.46,1.46,1.46,1.46,0,0,1-1.46-1.46Zm-4.38-19a1.46,1.46,0,0,1,1.46,1.46,1.46,1.46,0,0,1-1.46,1.46,1.46,1.46,0,0,1-1.46-1.46A1.46,1.46,0,0,1-135.85,163.84Zm-1.46,10a1.46,1.46,0,0,1,1.46-1.46,1.46,1.46,0,0,1,1.46,1.46V183a1.46,1.46,0,0,1-1.46,1.46,1.46,1.46,0,0,1-1.46-1.46Zm0,16.62a1.46,1.46,0,0,1,1.46-1.46,1.46,1.46,0,0,1,1.46,1.46v5.6a1.46,1.46,0,0,1-1.46,1.46,1.46,1.46,0,0,1-1.46-1.46Zm-5.84-13.28a1.46,1.46,0,0,1,1.46-1.46,1.47,1.47,0,0,1,1.46,1.46v1.3a1.47,1.47,0,0,1-1.46,1.46,1.46,1.46,0,0,1-1.46-1.46Zm0,12.6a1.46,1.46,0,0,1,1.46-1.46,1.46,1.46,0,0,1,1.46,1.46v14.93a1.46,1.46,0,0,1-1.46,1.46,1.46,1.46,0,0,1-1.46-1.46ZM-149,170.89a1.46,1.46,0,0,1,1.46-1.46,1.46,1.46,0,0,1,1.46,1.46v6.54a1.46,1.46,0,0,1-1.46,1.46,1.46,1.46,0,0,1-1.46-1.46Zm0,16.67a1.46,1.46,0,0,1,1.46-1.46,1.46,1.46,0,0,1,1.46,1.46v12.73a1.46,1.46,0,0,1-1.46,1.46,1.47,1.47,0,0,1-1.46-1.46Zm39.44,69.79a1.46,1.46,0,0,0-1.46,1.46v2.55a1.46,1.46,0,0,0,1.46,1.46,1.46,1.46,0,0,0,1.46-1.46v-2.55A1.46,1.46,0,0,0-109.56,257.35Zm0-17.92a1.46,1.46,0,0,0-1.46,1.46v8.86a1.46,1.46,0,0,0,1.46,1.46,1.46,1.46,0,0,0,1.46-1.46v-8.86A1.46,1.46,0,0,0-109.56,239.43Zm11.69,3.71a1.46,1.46,0,0,0-1.46,1.46v7A1.46,1.46,0,0,0-97.87,253a1.47,1.47,0,0,0,1.46-1.46v-7A1.46,1.46,0,0,0-97.87,243.14Zm-5.85,8.47a1.46,1.46,0,0,0-1.46,1.46v2.41a1.47,1.47,0,0,0,1.46,1.46,1.47,1.47,0,0,0,1.47-1.46v-2.41A1.46,1.46,0,0,0-103.72,251.61Zm0-20.12a1.46,1.46,0,0,0-1.46,1.46v11a1.46,1.46,0,0,0,1.46,1.46,1.46,1.46,0,0,0,1.47-1.46V233A1.46,1.46,0,0,0-103.72,231.49Zm5.85,29.69a1.46,1.46,0,0,0-1.46,1.47,1.46,1.46,0,0,0,1.46,1.46,1.47,1.47,0,0,0,1.46-1.46A1.47,1.47,0,0,0-97.87,261.18Zm-23.37-23.66A1.46,1.46,0,0,0-122.7,239v15.18a1.46,1.46,0,0,0,1.46,1.46,1.47,1.47,0,0,0,1.46-1.46V239A1.46,1.46,0,0,0-121.24,237.52Zm-5.85-11.65a1.47,1.47,0,0,0-1.46,1.47v13.25a1.47,1.47,0,0,0,1.46,1.46,1.46,1.46,0,0,0,1.46-1.46V227.34A1.46,1.46,0,0,0-127.09,225.87Zm5.85,33.72a1.46,1.46,0,0,0-1.46,1.46v2.37a1.46,1.46,0,0,0,1.46,1.46,1.46,1.46,0,0,0,1.46-1.46v-2.37A1.47,1.47,0,0,0-121.24,259.59Zm5.84-18.7a1.46,1.46,0,0,0-1.46,1.46v4a1.46,1.46,0,0,0,1.46,1.46,1.46,1.46,0,0,0,1.46-1.46v-4A1.46,1.46,0,0,0-115.4,240.89Zm0-19.9a1.46,1.46,0,0,0-1.46,1.46V232.5A1.46,1.46,0,0,0-115.4,234a1.46,1.46,0,0,0,1.46-1.46V222.45A1.46,1.46,0,0,0-115.4,221Zm0,32.18a1.46,1.46,0,0,0-1.46,1.46v1a1.46,1.46,0,0,0,1.46,1.46,1.46,1.46,0,0,0,1.46-1.46v-1A1.46,1.46,0,0,0-115.4,253.17Z" transform="translate(151.92 -157.22)" style="fill:#fff"/></svg>