<?xml version="1.0" encoding="utf-8"?>
<!-- Generator: Adobe Illustrator 22.1.0, SVG Export Plug-In . SVG Version: 6.00 Build 0)  -->
<svg version="1.1" id="Layer_1" xmlns="http://www.w3.org/2000/svg" xmlns:xlink="http://www.w3.org/1999/xlink" x="0px" y="0px"
	 viewBox="0 0 116.9 111.1" style="enable-background:new 0 0 116.9 111.1;" xml:space="preserve">
<style type="text/css">
	.st0{fill:#E8E8E8;}
</style>
<title>drip</title>
<path class="st0" d="M54,75.5c-0.8,0-1.5,0.7-1.5,1.5c0,0,0,0,0,0v4c0,0.8,0.7,1.5,1.5,1.5c0,0,0,0,0,0c0.8,0,1.5-0.7,1.5-1.5v-4
	C55.5,76.1,54.9,75.5,54,75.5z M77.4,87.1c-0.8,0-1.5,0.6-1.5,1.4c0,0,0,0,0,0v2.8c0,0.8,0.7,1.4,1.5,1.4c0,0,0,0,0,0
	c0.8,0,1.5-0.6,1.5-1.4c0,0,0,0,0,0v-2.8C78.9,87.8,78.3,87.1,77.4,87.1C77.4,87.1,77.4,87.1,77.4,87.1L77.4,87.1z M77.4,70.9
	c-0.8,0-1.5,0.6-1.5,1.4c0,0,0,0,0,0v8.5c0,0.8,0.7,1.5,1.5,1.5c0,0,0,0,0,0c0.8,0,1.5-0.6,1.5-1.4c0,0,0-0.1,0-0.1v-8.5
	C78.9,71.6,78.3,70.9,77.4,70.9C77.4,70.9,77.4,70.9,77.4,70.9z M83.3,75.2c-0.8,0-1.5,0.7-1.5,1.5v3.1c0,0.8,0.7,1.5,1.5,1.5
	c0,0,0,0,0,0c0.8,0,1.5-0.7,1.5-1.5v0v-3.1C84.7,75.9,84.1,75.2,83.3,75.2z M83.3,99.5c-0.8,0-1.5,0.7-1.5,1.5v1.9
	c0,0.8,0.7,1.5,1.5,1.5s1.5-0.7,1.5-1.5v-1.9C84.7,100.1,84.1,99.5,83.3,99.5z M77.4,98.7c-0.8,0-1.5,0.6-1.5,1.4c0,0,0,0,0,0l0,0
	c0,0.8,0.7,1.5,1.5,1.5c0.8,0,1.5-0.6,1.5-1.4c0,0,0-0.1,0-0.1l0,0C78.9,99.3,78.3,98.7,77.4,98.7C77.4,98.7,77.4,98.7,77.4,98.7
	L77.4,98.7z M71.6,102.7c-0.8,0-1.5,0.7-1.5,1.5v2.2c0,0.8,0.7,1.5,1.5,1.5s1.5-0.7,1.5-1.5v-2.2C73,103.4,72.3,102.8,71.6,102.7
	L71.6,102.7z M59.9,92.2c-0.8,0-1.5,0.7-1.5,1.5l0,0v1.9c0,0.8,0.7,1.5,1.5,1.5c0,0,0,0,0,0c0.8,0,1.5-0.7,1.5-1.5l0,0v-1.9
	C61.4,92.9,60.7,92.2,59.9,92.2C59.9,92.2,59.9,92.2,59.9,92.2z M59.9,71.2c-0.8,0-1.5,0.7-1.5,1.5l0,0v10.9c0,0.8,0.7,1.5,1.5,1.5
	c0,0,0,0,0,0c0.8,0,1.5-0.7,1.5-1.5l0,0V72.7C61.4,71.9,60.7,71.2,59.9,71.2C59.9,71.2,59.9,71.2,59.9,71.2z M65.8,66.1
	c-0.8,0-1.5,0.7-1.5,1.5l0,0v21.2c0,0.8,0.7,1.5,1.5,1.5c0,0,0,0,0,0c0.8,0,1.5-0.7,1.5-1.5l0,0V67.5C67.2,66.7,66.6,66,65.8,66.1
	C65.8,66,65.7,66,65.8,66.1L65.8,66.1z M65.8,94.9c-0.8,0-1.5,0.7-1.5,1.5l0,0v4.7c0,0.8,0.7,1.5,1.5,1.5s1.5-0.7,1.5-1.5v-4.7
	C67.2,95.5,66.6,94.9,65.8,94.9C65.8,94.9,65.7,94.9,65.8,94.9L65.8,94.9z M71.6,78.6c-0.8,0-1.5,0.7-1.5,1.5l0,0v15.1
	c0,0.8,0.7,1.5,1.5,1.5c0,0,0,0,0,0c0.8,0,1.5-0.7,1.5-1.5V80.1C73.1,79.3,72.4,78.6,71.6,78.6C71.6,78.6,71.6,78.6,71.6,78.6
	L71.6,78.6z M83.3,85.4c-0.8,0-1.5,0.7-1.5,1.5l0,0v6.3c0,0.8,0.7,1.5,1.5,1.5c0.8,0,1.5-0.7,1.5-1.5l0,0v-6.3
	C84.8,86,84.1,85.4,83.3,85.4C83.3,85.4,83.3,85.4,83.3,85.4L83.3,85.4z M106.7,105.6c-0.8,0-1.5,0.7-1.5,1.5c0,0.8,0.7,1.5,1.5,1.5
	c0.8,0,1.5-0.7,1.5-1.5C108.1,106.3,107.5,105.6,106.7,105.6C106.7,105.6,106.6,105.6,106.7,105.6L106.7,105.6z M112.5,95.8
	c-0.8,0-1.5,0.7-1.5,1.5l0,0v3.9c0,0.8,0.7,1.5,1.5,1.5c0.8,0,1.4-0.7,1.4-1.5v-3.9C113.9,96.5,113.3,95.9,112.5,95.8L112.5,95.8z
	 M100.8,94.6c-0.8,0-1.5,0.7-1.5,1.5l0,0V98c0,0.8,0.7,1.5,1.5,1.5l0,0c0.8,0,1.5-0.7,1.5-1.5l0,0v-1.9
	C102.3,95.3,101.6,94.6,100.8,94.6C100.8,94.6,100.8,94.6,100.8,94.6L100.8,94.6z M106.7,82.7c-0.8,0-1.5,0.7-1.5,1.5l0,0v8.3
	c0,0.8,0.7,1.5,1.5,1.5h0c0.8,0,1.5-0.7,1.5-1.5l0,0v-8.3C108.1,83.4,107.5,82.7,106.7,82.7C106.7,82.7,106.6,82.7,106.7,82.7
	L106.7,82.7z M100.8,77.2c-0.8,0-1.5,0.7-1.5,1.5l0,0v8c0,0.8,0.7,1.5,1.5,1.5l0,0c0.8,0,1.5-0.7,1.5-1.5l0,0v-8
	C102.3,77.9,101.6,77.2,100.8,77.2C100.8,77.2,100.8,77.2,100.8,77.2L100.8,77.2z M89.1,104.2c-0.8,0-1.5,0.7-1.5,1.5v4
	c0,0.8,0.7,1.5,1.5,1.5c0.8,0,1.5-0.7,1.5-1.5l0,0v-4C90.6,104.9,90,104.2,89.1,104.2C89.1,104.2,89.1,104.2,89.1,104.2L89.1,104.2z
	 M89.1,80c-0.8,0-1.5,0.7-1.5,1.5l0,0v13.8c0,0.8,0.7,1.5,1.5,1.5h0c0.8,0,1.5-0.6,1.5-1.4c0,0,0,0,0,0V81.4
	C90.6,80.6,89.9,80,89.1,80C89.1,80,89.1,80,89.1,80L89.1,80z M94.9,105.6c-0.8,0-1.5,0.7-1.5,1.5s0.7,1.5,1.5,1.5c0,0,0,0,0,0
	c0.8,0,1.5-0.7,1.5-1.5C96.4,106.3,95.7,105.6,94.9,105.6C94.9,105.6,94.9,105.6,94.9,105.6z M94.9,73c-0.8,0-1.5,0.7-1.5,1.5l0,0
	V80c0,0.8,0.7,1.5,1.5,1.5l0,0c0.8,0,1.5-0.7,1.5-1.5l0,0v-5.5C96.4,73.7,95.7,73,94.9,73L94.9,73z M94.9,89.3
	c-0.8,0-1.4,0.6-1.4,1.4v8.9c0,0.8,0.6,1.5,1.4,1.5c0,0,0,0,0,0c0.8,0,1.5-0.7,1.5-1.5v-8.9C96.4,90,95.7,89.3,94.9,89.3L94.9,89.3z
	 M24.8,90.7c-0.8,0-1.5,0.7-1.5,1.5l0,0v6.2c0,0.8,0.7,1.5,1.5,1.5s1.5-0.7,1.5-1.5l0,0v-6.2C26.3,91.3,25.6,90.7,24.8,90.7
	L24.8,90.7z M7.3,80c-0.8,0-1.5,0.7-1.5,1.5v0v9.9c0,0.8,0.7,1.5,1.5,1.5c0.8,0,1.5-0.7,1.5-1.5v-9.9C8.7,80.7,8.1,80,7.3,80L7.3,80
	z M13.1,89.1c-0.8,0-1.5,0.7-1.5,1.5v0v2.3c0,0.8,0.7,1.5,1.5,1.5h0c0.8,0,1.5-0.7,1.5-1.5v-2.3C14.6,89.8,13.9,89.2,13.1,89.1
	L13.1,89.1z M19,106.4c-0.8,0-1.5,0.7-1.5,1.5c0,0.8,0.6,1.5,1.4,1.5c0,0,0,0,0,0c0.8,0,1.5-0.7,1.5-1.5c0,0,0,0,0,0
	C20.4,107.1,19.8,106.4,19,106.4L19,106.4z M13.1,69c-0.8,0-1.5,0.7-1.5,1.5v0v9.3c0,0.8,0.7,1.5,1.5,1.5h0c0.8,0,1.5-0.7,1.5-1.5v0
	v-9.4C14.6,69.6,13.9,69,13.1,69L13.1,69z M112.4,74.6c-0.8,0-1.5,0.7-1.5,1.5l0,0v12.3c0,0.8,0.7,1.4,1.5,1.4c0,0,0,0,0,0
	c0.8,0,1.4-0.6,1.4-1.4V76.1C113.9,75.3,113.3,74.6,112.4,74.6L112.4,74.6z M19,89.3c-0.8,0-1.5,0.7-1.5,1.5v0v11.7
	c0,0.8,0.7,1.5,1.5,1.5s1.5-0.7,1.5-1.5V90.7C20.4,89.9,19.8,89.3,19,89.3L19,89.3z M19,75c-0.8,0-1.5,0.7-1.5,1.5v0v4.9
	c0,0.8,0.7,1.5,1.5,1.5h0c0.8,0,1.5-0.7,1.5-1.5v0v-4.9C20.4,75.7,19.8,75,19,75L19,75z M1.5,100.8c0.8,0,1.5-0.7,1.5-1.5V89
	c0-0.8-0.6-1.5-1.4-1.5c0,0,0,0,0,0C0.7,87.5,0,88.2,0,89c0,0,0,0,0,0v10.3C0,100.1,0.7,100.8,1.5,100.8z M7.3,99.9
	c-0.8,0-1.5,0.7-1.5,1.5v2.6c0,0.8,0.7,1.5,1.5,1.5c0.8,0,1.5-0.7,1.5-1.5l0,0v-2.6C8.8,100.5,8.1,99.9,7.3,99.9L7.3,99.9z
	 M1.5,83.2c0.8,0,1.4-0.6,1.5-1.4V67.6c0-0.8-0.7-1.5-1.5-1.5h0c-0.8,0-1.5,0.7-1.5,1.5v0v14.2C0,82.6,0.6,83.2,1.5,83.2
	C1.5,83.2,1.5,83.2,1.5,83.2L1.5,83.2z M1.5,107.6c-0.8,0-1.5,0.7-1.5,1.5s0.7,1.5,1.5,1.5s1.5-0.7,1.5-1.5
	C2.9,108.3,2.3,107.7,1.5,107.6L1.5,107.6z M1.5,61.3c0.8,0,1.5-0.7,1.5-1.5v0v-4.6c0-0.8,0.7-1.5,1.5-1.5h0c0.8,0,1.5,0.7,1.5,1.5
	v0v17.6c0,0.8,0.7,1.5,1.5,1.5h0c0.8,0,1.5-0.6,1.5-1.4c0,0,0,0,0,0V53.9c0-0.8,0.7-1.5,1.5-1.5h0c0.8,0,1.5,0.7,1.5,1.5v0v10.8
	c0,0.8,0.6,1.5,1.4,1.5c0,0,0,0,0,0c0.8,0,1.5-0.7,1.5-1.5V47.1c0-0.8,0.7-1.5,1.5-1.5h0c0.8,0,1.5,0.7,1.5,1.5v0v22.6
	c0,0.8,0.7,1.5,1.5,1.5h0c0.8,0,1.5-0.7,1.5-1.5v0V40c0-0.8,0.7-1.5,1.5-1.5c0,0,0,0,0,0c0.8,0,1.5,0.7,1.5,1.5v0v22.3
	c0,0.8,0.7,1.5,1.5,1.5c0,0,0,0,0,0c0.8,0,1.5-0.7,1.5-1.5l0,0v-18c0-0.8,0.7-1.5,1.5-1.5c0.8,0,1.5,0.7,1.5,1.5v29.7
	c0,0.8,0.7,1.5,1.5,1.5c0,0,0,0,0,0c0.8,0,1.5-0.7,1.5-1.5l0,0V51.8c0-0.8,0.7-1.5,1.5-1.5c0,0,0,0,0,0c0.8,0,1.5,0.7,1.5,1.5V59
	c0,0.8,0.7,1.5,1.5,1.5c0,0,0,0,0,0c0.8,0,1.5-0.7,1.5-1.5l0,0v-1.3c0-0.8,0.7-1.5,1.5-1.5c0,0,0,0,0,0c0.8,0,1.5,0.7,1.5,1.5l0,0
	v14.4c0,0.8,0.7,1.5,1.5,1.5c0,0,0,0,0,0c0.8,0,1.5-0.7,1.5-1.5l0,0V52.4c0-0.8,0.7-1.5,1.5-1.5c0,0,0,0,0,0c0.8,0,1.5,0.7,1.5,1.5
	l0,0v16.7c0,0.8,0.7,1.5,1.5,1.5c0,0,0,0,0,0c0.8,0,1.5-0.6,1.5-1.4c0,0,0,0,0,0V55.6c0-0.8,0.7-1.5,1.5-1.5c0,0,0,0,0,0
	c0.8,0,1.5,0.7,1.5,1.5l0,0v13.9c0,0.8,0.7,1.5,1.5,1.5c0,0,0,0,0,0c0.8,0,1.5-0.7,1.5-1.5l0,0V43.8c0-0.8,0.6-1.5,1.4-1.5
	c0,0,0,0,0,0c0.8,0,1.5,0.7,1.5,1.5c0,0,0,0,0,0v20.8c0,0.8,0.7,1.5,1.5,1.5c0,0,0,0,0,0c0.8,0,1.5-0.7,1.5-1.5l0,0v-6.8
	c0-0.8,0.7-1.5,1.5-1.5c0,0,0,0,0,0c0.8,0,1.4,0.7,1.4,1.5v3.1c0,0.8,0.7,1.5,1.5,1.5c0,0,0,0,0,0c0.8,0,1.5-0.7,1.5-1.5l0,0v-6.6
	c0-0.8,0.7-1.4,1.5-1.5c0.8,0,1.5,0.7,1.5,1.5V74c0,0.8,0.7,1.5,1.5,1.5c0,0,0,0,0,0c0.8,0,1.5-0.7,1.5-1.5l0,0V56.8
	c0-0.8,0.7-1.5,1.5-1.5c0,0,0,0,0,0c0.8,0,1.4,0.7,1.4,1.5v9.1c0,0.8,0.7,1.5,1.5,1.5c0,0,0,0,0,0c0.8,0,1.5-0.6,1.5-1.4
	c0,0,0,0,0-0.1V47.6c0-0.8,0.7-1.5,1.5-1.5c0,0,0,0,0,0c0.8,0,1.5,0.7,1.5,1.5l0,0v22.8c0,0.8,0.7,1.5,1.5,1.5c0,0,0,0,0,0
	c0.8,0,1.5-0.7,1.5-1.5l0,0V57.8c0-0.8,0.7-1.5,1.5-1.5c0,0,0,0,0,0c0.8,0,1.4,0.7,1.4,1.5v16.9c0,0.8,0.7,1.5,1.5,1.5h0
	c0.8,0,1.5-0.6,1.5-1.4c0,0,0,0,0,0V44.5c0-0.8,0.7-1.5,1.5-1.5l0,0c0.8,0,1.5,0.7,1.5,1.5l0,0v22.7c0,0.8,0.6,1.4,1.4,1.5
	c0.8,0,1.5-0.7,1.5-1.5l0,0V36c0-0.8,0.7-1.5,1.5-1.5c0,0,0.1,0,0.1,0c0.8,0,1.5,0.7,1.5,1.5l0,0v33.2c0,0.8,0.6,1.5,1.4,1.5
	c0,0,0,0,0,0c0.8,0,1.5-0.7,1.5-1.5c0,0,0,0,0,0V54.6c0-0.8,0.7-1.5,1.5-1.5l0,0c0.8,0,1.5,0.7,1.5,1.5l0,0v22.8
	c0,0.8,0.7,1.5,1.5,1.5l0,0c0.8,0,1.5-0.7,1.5-1.5l0,0V45.7c0-0.8,0.7-1.5,1.5-1.5c0.8,0,1.5,0.7,1.5,1.5v23.9
	c0,0.8,0.7,1.5,1.5,1.5h0c0.8,0,1.4-0.7,1.4-1.5V57.3c0-0.8,0.6-1.5,1.4-1.5c0,0,0,0,0.1,0c0.8,0,1.5,0.7,1.5,1.5v-7.6
	c0,0.8-0.7,1.5-1.5,1.5h0c-0.8,0-1.5-0.6-1.5-1.4V37.6c0-0.8,0.6-1.5,1.4-1.5c0,0,0,0,0,0c0.8,0,1.5,0.7,1.5,1.5V27
	c0,0.8-0.7,1.5-1.5,1.5h0c-0.8,0-1.5-0.7-1.5-1.5l0,0V20c0-0.8,0.7-1.5,1.5-1.5h0c0.8,0,1.5,0.7,1.5,1.5l0,0V8
	c0,0.8-0.7,1.5-1.5,1.5h0c-0.8,0-1.4-0.6-1.5-1.4l0,0c0-0.8,0.7-1.5,1.5-1.5h0c0.8,0,1.5,0.7,1.5,1.5l0,0V0H0v59.9
	C0,60.7,0.7,61.4,1.5,61.3L1.5,61.3z M108.1,5.8c0-0.8,0.7-1.5,1.5-1.5l0,0c0.8,0,1.5,0.6,1.5,1.4c0,0,0,0,0,0v5.6
	c0,0.8-0.7,1.5-1.5,1.5c0,0,0,0,0,0c-0.8,0-1.5-0.7-1.5-1.5l0,0V5.8z M108.1,19.4c0-0.8,0.7-1.5,1.5-1.5l0,0c0.8,0,1.5,0.6,1.5,1.4
	c0,0,0,0,0,0V39c0,0.8-0.7,1.5-1.5,1.5c0,0,0,0,0,0c-0.8,0-1.5-0.7-1.5-1.5l0,0V19.4z M103.7,14c0.8,0,1.5,0.7,1.5,1.5l0,0
	c0,0.8-0.7,1.5-1.5,1.5l0,0c-0.8,0-1.5-0.7-1.5-1.5C102.3,14.7,102.9,14,103.7,14L103.7,14z M102.2,27.2c0-0.8,0.7-1.5,1.5-1.5
	c0,0,0,0,0,0c0.8,0,1.5,0.7,1.5,1.5l0,0v9.9c0,0.8-0.7,1.5-1.5,1.5h0c-0.8,0-1.5-0.7-1.5-1.5l0,0L102.2,27.2z M102.2,42.8
	c0-0.8,0.7-1.5,1.5-1.5c0.8,0,1.5,0.7,1.5,1.5c0,0,0,0,0,0v5.2c0,0.8-0.7,1.5-1.5,1.5h0c-0.8,0-1.5-0.7-1.5-1.5l0,0L102.2,42.8z
	 M96.4,13.2c0-0.8,0.7-1.4,1.5-1.4c0.8,0,1.5,0.7,1.5,1.5l0,0v1.5c0,0.8-0.7,1.4-1.5,1.4c-0.8,0-1.5-0.7-1.5-1.5l0,0L96.4,13.2z
	 M96.4,21.6c0-0.8,0.7-1.4,1.5-1.4c0,0,0,0,0,0c0.8,0,1.5,0.7,1.5,1.5l0,0v7.9c0,0.8-0.7,1.5-1.5,1.5s-1.5-0.7-1.5-1.5l0,0
	L96.4,21.6z M90.6,7.3c0-0.8,0.7-1.5,1.5-1.5l0,0c0.8,0,1.5,0.7,1.5,1.5v1.5c0,0.8-0.7,1.5-1.5,1.5h0c-0.8,0-1.5-0.7-1.5-1.5l0,0
	V7.3z M90.6,25.8c0-0.8,0.7-1.5,1.5-1.5l0,0c0.8,0,1.5,0.7,1.5,1.5l0,0v9.4c0,0.8-0.7,1.5-1.5,1.5h0c-0.8,0-1.5-0.7-1.5-1.5l0,0
	V25.8z M84.7,13.8c0-0.8,0.7-1.5,1.5-1.5c0.8,0,1.4,0.6,1.5,1.4v5.2c0,0.8-0.7,1.5-1.5,1.5c0,0,0,0,0,0c-0.8,0-1.5-0.7-1.5-1.5l0,0
	L84.7,13.8z M84.7,30.5c0-0.8,0.7-1.5,1.5-1.5c0,0,0,0,0,0c0.8,0,1.5,0.7,1.5,1.5l0,0v1.3c0,0.8-0.7,1.5-1.5,1.5c0,0,0,0,0,0
	c-0.8,0-1.5-0.7-1.5-1.5L84.7,30.5z M84.7,39.3c0-0.8,0.7-1.5,1.5-1.5c0,0,0,0,0,0c0.8,0,1.5,0.7,1.5,1.5l0,0v12.1
	c0,0.8-0.7,1.5-1.5,1.5c0,0,0,0,0,0c-0.8,0-1.5-0.7-1.5-1.5V39.3z M78.9,23.9c0-0.8,0.7-1.5,1.5-1.5c0,0,0,0,0,0
	c0.8,0,1.5,0.7,1.5,1.5l0,0v16.3c0,0.8-0.7,1.5-1.5,1.5c0,0,0,0,0,0c-0.8,0-1.5-0.7-1.5-1.5V23.9z M73.1,9.1c0-0.8,0.7-1.5,1.5-1.5
	c0,0,0,0,0,0c0.8,0,1.4,0.7,1.4,1.5v2.3c0,0.8-0.6,1.4-1.4,1.4c-0.8,0-1.5-0.7-1.5-1.5l0,0L73.1,9.1z M73.1,20.7
	c0-0.8,0.7-1.5,1.5-1.5c0,0,0,0,0,0c0.8,0,1.4,0.7,1.4,1.5v13.1c0,0.8-0.7,1.5-1.5,1.5c0,0,0,0,0,0c-0.8,0-1.5-0.7-1.5-1.5l0,0
	L73.1,20.7z M73.1,42c0-0.8,0.7-1.5,1.5-1.5c0,0,0,0,0,0c0.8,0,1.4,0.7,1.4,1.5v8.4c0,0.8-0.7,1.5-1.5,1.5c-0.8,0-1.5-0.7-1.5-1.5
	l0,0L73.1,42z M70.2,46c0,0.8-0.7,1.5-1.5,1.5c0,0,0,0,0,0c-0.8,0-1.5-0.7-1.5-1.5l0,0V30.7c0-0.8,0.7-1.5,1.5-1.5c0,0,0,0,0,0
	c0.8,0,1.5,0.6,1.5,1.4c0,0,0,0,0,0V46z M70.2,19.1v2.7c0,0.8-0.7,1.5-1.5,1.5c-0.8,0-1.5-0.6-1.5-1.4c0,0,0,0,0,0v-2.7
	c0-0.8,0.7-1.5,1.5-1.5c0,0,0,0,0,0C69.5,17.6,70.1,18.3,70.2,19.1C70.1,19.1,70.1,19.1,70.2,19.1L70.2,19.1z M66.7,4.2
	c0-0.8,0.7-1.4,1.4-1.4c0.8,0,1.5,0.7,1.5,1.5l0,0c0,0.8-0.7,1.5-1.5,1.5c0,0,0,0,0,0C67.3,5.7,66.7,5.1,66.7,4.2
	C66.7,4.2,66.7,4.2,66.7,4.2L66.7,4.2z M61.4,21.2c0-0.8,0.7-1.5,1.5-1.5c0,0,0,0,0,0c0.8,0,1.5,0.7,1.5,1.5l0,0v7.5
	c0,0.8-0.7,1.5-1.5,1.5c0,0,0,0,0,0c-0.8,0-1.5-0.7-1.5-1.5l0,0V21.2z M61.4,37.5c0-0.8,0.7-1.5,1.5-1.5c0,0,0,0,0,0
	c0.8,0,1.5,0.7,1.5,1.5l0,0v13.4c0,0.8-0.7,1.5-1.5,1.5c0,0,0,0,0,0c-0.8,0-1.5-0.7-1.5-1.5l0,0V37.5z M55.5,14.8
	c0-0.8,0.7-1.5,1.5-1.5c0,0,0,0,0,0c0.8,0,1.5,0.7,1.5,1.5v0v1.3c0,0.8-0.7,1.5-1.5,1.5c0,0,0,0,0,0c-0.8,0-1.5-0.7-1.5-1.5l0,0
	L55.5,14.8z M55.5,22.1c0-0.8,0.7-1.5,1.5-1.5c0,0,0,0,0,0c0.8,0,1.5,0.7,1.5,1.5l0,0v11.1c0,0.8-0.6,1.5-1.4,1.5c0,0,0,0,0,0
	c-0.8,0-1.5-0.7-1.5-1.5c0,0,0,0,0,0V22.1z M49.7,6.9c0-0.8,0.7-1.5,1.5-1.5c0,0,0,0,0,0c0.8,0,1.5,0.7,1.5,1.5l0,0v2.3
	c0,0.8-0.7,1.5-1.5,1.5c0,0,0,0,0,0c-0.8,0-1.5-0.7-1.5-1.5l0,0V6.9z M49.7,18.6c0-0.8,0.7-1.5,1.5-1.5c0,0,0,0,0,0
	c0.8,0,1.5,0.7,1.5,1.5l0,0v12.6c0,0.8-0.7,1.5-1.5,1.5c0,0,0,0,0,0c-0.8,0-1.5-0.7-1.5-1.5l0,0V18.6z M49.7,40
	c0-0.8,0.7-1.5,1.5-1.5c0,0,0,0,0,0c0.8,0,1.5,0.7,1.5,1.5l0,0v8.4c0,0.8-0.7,1.5-1.5,1.5c-0.8,0-1.5-0.7-1.5-1.5c0,0,0,0,0,0V40z
	 M43.8,24.2c0-0.8,0.7-1.5,1.5-1.5c0,0,0,0,0,0c0.8,0,1.5,0.7,1.5,1.5l0,0v2.7c0,0.8-0.7,1.5-1.5,1.5c0,0,0,0,0,0
	c-0.8,0-1.5-0.7-1.5-1.5V24.2z M43.8,36.3c0-0.8,0.7-1.5,1.5-1.5c0.8,0,1.5,0.7,1.5,1.5l0,0v10.1c0,0.8-0.7,1.5-1.5,1.5c0,0,0,0,0,0
	c-0.8,0-1.5-0.7-1.5-1.5l0,0V36.3z M39.4,13c0.8,0,1.5,0.7,1.5,1.5l0,0c0,0.8-0.7,1.5-1.5,1.5c0,0,0,0,0,0c-0.8,0-1.5-0.7-1.5-1.5
	l0,0C38,13.6,38.6,13,39.4,13L39.4,13z M38,29.3c0-0.8,0.7-1.5,1.5-1.5c0,0,0,0,0,0c0.8,0,1.5,0.7,1.5,1.5l0,0v7.8
	c0,0.8-0.6,1.5-1.4,1.5c0,0,0,0,0,0c-0.8,0-1.5-0.7-1.5-1.5c0,0,0,0,0,0V29.3z M38,45.9c0-0.8,0.7-1.5,1.5-1.5c0,0,0,0,0,0
	c0.8,0,1.5,0.7,1.5,1.5l0,0V49c0,0.8-0.7,1.5-1.5,1.5c0,0,0,0,0,0c-0.8,0-1.5-0.7-1.5-1.5l0,0V45.9z M33.6,4.4
	c0.8,0,1.5,0.7,1.5,1.5l0,0c0,0.8-0.7,1.5-1.5,1.5c0,0,0,0,0,0c-0.8,0-1.5-0.7-1.5-1.5l0,0C32.2,5.1,32.8,4.5,33.6,4.4L33.6,4.4z
	 M32.1,15.9c0-0.8,0.7-1.5,1.5-1.5c0,0,0,0,0,0c0.8,0,1.5,0.7,1.5,1.5V28c0,0.8-0.7,1.5-1.5,1.5c0,0,0,0,0,0c-0.8,0-1.5-0.7-1.5-1.5
	l0,0V15.9z M32.1,36.8c0-0.8,0.7-1.5,1.5-1.5c0,0,0,0,0,0c0.8,0,1.5,0.7,1.5,1.5l0,0v6.4c0,0.8-0.7,1.5-1.5,1.5c0,0,0,0,0,0
	c-0.8,0-1.5-0.7-1.5-1.5l0,0V36.8z M26.3,9.6c0-0.8,0.7-1.5,1.5-1.5c0,0,0,0,0,0c0.8,0,1.5,0.6,1.5,1.4c0,0,0,0,0,0v2.5
	c0,0.8-0.7,1.5-1.5,1.5c0,0,0,0,0,0c-0.8,0-1.5-0.7-1.5-1.5l0,0V9.6z M26.3,28.9c0-0.8,0.7-1.5,1.5-1.5c0,0,0,0,0,0
	c0.8,0,1.5,0.6,1.5,1.4c0,0,0,0,0,0v8.7c0,0.8-0.7,1.5-1.5,1.5c-0.8,0-1.5-0.7-1.5-1.5V28.9z M20.5,13.9c0-0.8,0.7-1.5,1.5-1.5h0
	c0.8,0,1.5,0.7,1.5,1.5v0V17c0,0.8-0.7,1.5-1.5,1.5h0c-0.8,0-1.5-0.7-1.5-1.5v0V13.9z M20.5,25.6c0-0.8,0.7-1.5,1.5-1.5h0
	c0.8,0,1.5,0.7,1.5,1.5v0v5.6c0,0.8-0.7,1.5-1.5,1.5h0c-0.8,0-1.5-0.7-1.5-1.5v0V25.6z M16.1,6.6c0.8,0,1.5,0.7,1.5,1.5v0
	c0,0.8-0.7,1.5-1.5,1.5h0c-0.8,0-1.5-0.7-1.5-1.5v0C14.6,7.3,15.3,6.6,16.1,6.6L16.1,6.6z M14.6,16.6c0-0.8,0.7-1.5,1.5-1.5h0
	c0.8,0,1.5,0.7,1.5,1.5v0v9.2c0,0.8-0.7,1.5-1.5,1.5h0c-0.8,0-1.5-0.7-1.5-1.5v0V16.6z M14.6,33.2c0-0.8,0.7-1.5,1.5-1.5h0
	c0.8,0,1.5,0.7,1.5,1.5v0v5.6c0,0.8-0.7,1.5-1.5,1.5h0c-0.8,0-1.5-0.7-1.5-1.5v0V33.2z M8.8,19.9c0-0.8,0.7-1.5,1.5-1.5h0
	c0.8,0,1.5,0.7,1.5,1.5v1.3c0,0.8-0.7,1.5-1.5,1.5c-0.8,0-1.5-0.7-1.5-1.5v0V19.9z M8.8,32.6c0-0.8,0.7-1.5,1.5-1.5h0
	c0.8,0,1.5,0.7,1.5,1.5v0v14.9c0,0.8-0.7,1.5-1.5,1.5h0c-0.8,0-1.5-0.7-1.5-1.5v0V32.6z M2.9,13.7c0-0.8,0.7-1.5,1.5-1.5h0
	c0.8,0,1.5,0.7,1.5,1.5v0v6.5c0,0.8-0.7,1.5-1.5,1.5h0c-0.8,0-1.5-0.7-1.5-1.5v0V13.7z M2.9,30.3c0-0.8,0.7-1.5,1.5-1.5h0
	c0.8,0,1.5,0.7,1.5,1.5v0v12.7c0,0.8-0.7,1.5-1.5,1.5h0c-0.8,0-1.5-0.7-1.5-1.5V30.3z M42.4,100.1c-0.8,0-1.5,0.7-1.5,1.5v2.5
	c0,0.8,0.7,1.5,1.5,1.5s1.5-0.7,1.5-1.5v-2.5C43.8,100.8,43.2,100.1,42.4,100.1z M42.4,82.2c-0.8,0-1.5,0.7-1.5,1.5l0,0v8.9
	c0,0.8,0.7,1.5,1.5,1.5c0,0,0,0,0,0c0.8,0,1.5-0.7,1.5-1.5l0,0v-8.9C43.8,82.9,43.2,82.2,42.4,82.2C42.4,82.2,42.4,82.2,42.4,82.2
	L42.4,82.2z M54.1,85.9c-0.8,0-1.5,0.7-1.5,1.5l0,0v7c0,0.8,0.7,1.4,1.5,1.4c0.8,0,1.5-0.7,1.5-1.5v-7
	C55.5,86.5,54.8,85.9,54.1,85.9L54.1,85.9z M48.2,94.4c-0.8,0-1.5,0.7-1.5,1.5l0,0v2.4c0,0.8,0.7,1.5,1.5,1.5c0.8,0,1.5-0.7,1.5-1.5
	v-2.4C49.7,95,49,94.4,48.2,94.4C48.2,94.4,48.2,94.4,48.2,94.4L48.2,94.4z M48.2,74.3c-0.8,0-1.5,0.7-1.5,1.5l0,0v11
	c0,0.8,0.7,1.5,1.5,1.5c0,0,0,0,0,0c0.8,0,1.5-0.6,1.5-1.4c0,0,0,0,0,0v-11C49.7,75,49.1,74.3,48.2,74.3
	C48.2,74.3,48.2,74.3,48.2,74.3L48.2,74.3z M54.1,104c-0.8,0-1.5,0.7-1.5,1.5c0,0,0,0,0,0c0,0.8,0.7,1.5,1.5,1.5
	c0.8,0,1.5-0.7,1.5-1.5C55.5,104.6,54.9,104,54.1,104L54.1,104z M30.7,80.3c-0.8,0-1.5,0.7-1.5,1.5c0,0,0,0,0,0V97
	c0,0.8,0.7,1.5,1.5,1.5c0,0,0,0,0,0c0.8,0,1.5-0.7,1.5-1.5V81.8C32.2,81,31.5,80.3,30.7,80.3C30.7,80.3,30.7,80.3,30.7,80.3
	L30.7,80.3z M24.8,68.7c-0.8,0-1.5,0.7-1.5,1.5v13.2c0,0.8,0.7,1.5,1.5,1.5c0.8,0,1.5-0.7,1.5-1.5l0,0V70.1
	C26.3,69.3,25.6,68.7,24.8,68.7C24.8,68.7,24.8,68.6,24.8,68.7L24.8,68.7z M30.7,102.4c-0.8,0-1.5,0.7-1.5,1.5v2.4
	c0,0.8,0.7,1.5,1.5,1.5s1.5-0.7,1.5-1.5v-2.4C32.1,103,31.5,102.4,30.7,102.4L30.7,102.4z M36.5,83.7c-0.8,0-1.5,0.7-1.5,1.5l0,0v4
	c0,0.8,0.7,1.5,1.5,1.5c0,0,0,0,0,0c0.8,0,1.5-0.7,1.5-1.5l0,0v-4C38,84.3,37.3,83.7,36.5,83.7C36.5,83.7,36.5,83.7,36.5,83.7
	L36.5,83.7z M36.5,63.8c-0.8,0-1.5,0.7-1.5,1.5l0,0v10c0,0.8,0.6,1.5,1.4,1.5c0,0,0,0,0,0c0.8,0,1.5-0.7,1.5-1.5l0,0V65.2
	C38,64.4,37.3,63.8,36.5,63.8L36.5,63.8z M36.5,96c-0.8,0-1.5,0.7-1.5,1.5l0,0v1c0,0.8,0.7,1.5,1.5,1.5c0,0,0,0,0,0
	c0.8,0,1.5-0.7,1.5-1.5l0,0v-1C38,96.6,37.3,96,36.5,96C36.5,95.9,36.5,95.9,36.5,96L36.5,96z"/>
</svg>
