<svg id="Layer_1" data-name="Layer 1" xmlns="http://www.w3.org/2000/svg" viewBox="0 0 632.86 130.33"><title>octothoke_logo</title><path d="M160.42,437c-17.32,0-26.8-13.71-26.8-30.41,0-15.46,7.86-31.91,27-31.91,18.83,0,26.8,15.46,26.93,30.79C187.72,423.5,177.25,437,160.42,437Zm.38-56.09A17.86,17.86,0,0,0,147.09,387c-5.11,6-5.61,14.83-5.61,19.69,0,17,8.72,23.81,18.94,23.81,13.09,0,19.2-10.34,19.32-24.18C179.74,402.94,180,380.87,160.8,380.87Z" transform="translate(10.35 -330.58)" style="fill:#263a5f"/><path d="M247.18,422.26a25.53,25.53,0,0,1-4.61,7.1c-2,2.12-7.23,7.6-19.2,7.6-19.2,0-27.3-15.45-27.3-30.78,0-19.82,12.09-31.54,28.42-31.54,16.71,0,21.57,11.84,22.69,15l-6.86,1.62c-3.24-7.73-10.72-10-16.08-10-11.46,0-20.19,8.85-20.19,24.55,0,9.23,3.37,24.68,19.57,24.68,6.11,0,12.22-2.37,15.95-10Z" transform="translate(10.35 -330.58)" style="fill:#263a5f"/><path d="M271.73,422.88c0,5.61,2,7.23,4.86,7.23,2.62,0,5.61-1.75,8.23-3.74v7.35a16,16,0,0,1-9.47,2.87c-10.72,0-10.72-6-10.72-17.33v-37H252.16V376h12.47v-25.3h7.1V376h13.09v6.23H271.73Z" transform="translate(10.35 -330.58)" style="fill:#263a5f"/><path d="M319,437c-17.32,0-26.8-13.71-26.8-30.41,0-15.46,7.86-31.91,27.05-31.91,18.82,0,26.8,15.46,26.93,30.79C346.27,423.5,335.8,437,319,437Zm.38-56.09A17.89,17.89,0,0,0,305.63,387c-5.11,6-5.6,14.83-5.6,19.69,0,17,8.72,23.81,18.94,23.81,13.09,0,19.2-10.34,19.32-24.18C338.29,402.94,338.54,380.87,319.35,380.87Z" transform="translate(10.35 -330.58)" style="fill:#263a5f"/><path d="M368.08,422.88c0,5.61,2,7.23,4.86,7.23,2.62,0,5.61-1.75,8.23-3.74v7.35a16,16,0,0,1-9.47,2.87c-10.72,0-10.72-6-10.72-17.33v-37H348.51V376H361v-25.3h7.1V376h13.09v6.23H368.08Z" transform="translate(10.35 -330.58)" style="fill:#263a5f"/><path d="M441,435.47h-7.35V403.18c0-1.49-.13-8.85-.25-9.34-.63-6.86-4.12-12.34-13.71-12.34-6.61,0-14.21,3-16.58,13.08-.88,3.74-.88,7.23-.88,15.21v25.68h-7.35v-88h7.35v38c3.62-7.35,11-10.72,18.45-10.72,8.85,0,15.83,4.37,18.58,11.22,1.62,4.24,1.62,9.48,1.74,16Z" transform="translate(10.35 -330.58)" style="fill:#263a5f"/><path d="M477.77,437c-17.33,0-26.8-13.71-26.8-30.41,0-15.46,7.85-31.91,27-31.91,18.82,0,26.8,15.46,26.92,30.79C505.07,423.5,494.6,437,477.77,437Zm.37-56.09A17.89,17.89,0,0,0,464.43,387c-5.11,6-5.61,14.83-5.61,19.69,0,17,8.73,23.81,18.95,23.81,13.09,0,19.2-10.34,19.32-24.18C497.09,402.94,497.34,380.87,478.14,380.87Z" transform="translate(10.35 -330.58)" style="fill:#263a5f"/><path d="M566.39,435.47h-9l-22.69-30.79L522,416.77v18.7h-7.23v-88H522V407.3L555.43,376h9.22l-24.81,23.68Z" transform="translate(10.35 -330.58)" style="fill:#263a5f"/><path d="M622.49,419.76a31.41,31.41,0,0,1-5.61,9c-1.75,1.87-7.48,8.22-20.32,8.22-19.7,0-28.3-15.08-28.3-31.66,0-19.69,13-30.66,27.43-30.66,17.95,0,27.29,15.71,26.8,31.16H576.37a31.86,31.86,0,0,0,1.86,12.34c4.74,12.22,15.84,12.22,18.33,12.22,6.48,0,14-2.25,19.07-12.47Zm-8.36-19.94c-.62-5.24-2.24-10.35-6.23-14.09a18,18,0,0,0-12.34-4.48c-10.22,0-17.7,7.23-19.07,18.57Z" transform="translate(10.35 -330.58)" style="fill:#263a5f"/><path d="M111.51,363.7l-.39.05a10.29,10.29,0,0,0-1.19.17c-4.15.93-8.06,1.78-11.81,2.6v-12.9l12.9-2.87a6,6,0,0,1,.63-.09l.5-.05a2.5,2.5,0,1,0-.64-5l-.39,0a10.5,10.5,0,0,0-1.19.18L98.12,348.5V333.08a2.5,2.5,0,0,0-5,0v16.44c-8.76,1.94-15.2,3.24-21.43,4.5-6.59,1.33-13.41,2.71-22.91,4.82l-.84.19c-2,.44-4,.89-6,1.51a15.76,15.76,0,0,0-4.11,2,8.82,8.82,0,0,0-3.92,6.86c-.09,1.07-.14,1.94-.14,2.74V435.4c0,.12,0,.24,0,.36.67,4.54-1,8.4-5.38,12.51a21.48,21.48,0,0,1-2.24,1.81,31.19,31.19,0,0,1-14.63,5.67,5.45,5.45,0,0,0-.79.16H6.21l-.54-.12L4,455.38A24,24,0,0,1,.8,454.5a9.16,9.16,0,0,1-5.62-5.17c-.15-.38-.28-.82-.43-1.28,0-.12-.07-.23-.1-.35v-2.62a16,16,0,0,1,2.78-6,25.7,25.7,0,0,1,10.2-7.8,28.49,28.49,0,0,1,14.31-2.7,2.5,2.5,0,0,0,.45-5A33.24,33.24,0,0,0,5.6,426.76a30.79,30.79,0,0,0-12.13,9.32,20.9,20.9,0,0,0-3.75,8.11,2.3,2.3,0,0,0-.07.58v3.31a2.54,2.54,0,0,0,.12.78c.07.21.14.43.2.64.17.55.34,1.12.58,1.72A14.09,14.09,0,0,0-1,459.17a28.2,28.2,0,0,0,3.87,1.09c.51.11,1,.23,1.53.36l.74.17.28.06a2.42,2.42,0,0,0,.54.06h5.07a2.46,2.46,0,0,0,.6-.07l.32-.09.12,0a36.09,36.09,0,0,0,17-6.56,27.73,27.73,0,0,0,2.75-2.23c3.51-3.3,8-8.6,6.94-16.7V384.35c14-3.13,25.44-5.53,36.5-7.85l17.89-3.79v34.14l-.79-.24a24.66,24.66,0,0,0-4.58-.85,34.87,34.87,0,0,0-22,5.78c-5,3.21-8.24,7-10,11.59a13.32,13.32,0,0,0,6.05,17.08A22.42,22.42,0,0,0,72.7,443a35.71,35.71,0,0,0,22.8-7.85,21.36,21.36,0,0,0,8.16-13.11,2.5,2.5,0,1,0-4.91-.92,16.67,16.67,0,0,1-6.37,10.13A29.6,29.6,0,0,1,88.3,434a30.21,30.21,0,0,1-15.49,4,17.57,17.57,0,0,1-8.51-2.15c-4.17-2.39-5.62-6.48-3.88-10.93,1.4-3.58,4-6.59,8.09-9.21a29.87,29.87,0,0,1,18.86-5,18.78,18.78,0,0,1,3.63.68,25.76,25.76,0,0,1,2.47.89l1.27.49a2.51,2.51,0,0,0,3.38-2.34V371.63c4.07-.88,8.35-1.81,12.9-2.83a6,6,0,0,1,.63-.08l.5-.06a2.5,2.5,0,1,0-.64-5ZM74.2,371.6c-10.78,2.27-21.93,4.61-35.47,7.63v-7.05c0-.66,0-1.4.12-2.32a3.86,3.86,0,0,1,1.7-3.12,11,11,0,0,1,2.81-1.42c1.83-.56,3.69-1,5.66-1.41l.85-.19c9.45-2.1,16.24-3.47,22.81-4.8,6-1.21,12.18-2.46,20.44-4.28v13C86.45,369,80.26,370.33,74.2,371.6Z" transform="translate(10.35 -330.58)" style="fill:#f15a25"/></svg>